<?xml version="1.0" encoding="UTF-8"?>
<!DOCTYPE svg PUBLIC "-//W3C//DTD SVG 1.1//EN" "http://www.w3.org/Graphics/SVG/1.1/DTD/svg11.dtd">
<svg xmlns="http://www.w3.org/2000/svg" xmlns:xlink="http://www.w3.org/1999/xlink" version="1.1" width="126px" height="125px" viewBox="-0.5 -0.5 126 125"><defs/><g><g><path d="M 18.06 64.15 C 13.65 66.56 8.68 64.41 5.86 58.86 C 3.04 53.3 3.04 45.68 5.86 40.13 C 8.68 34.58 13.65 32.42 18.06 34.83 C 18.03 25.06 22.11 16.27 28.32 12.79 C 34.52 9.31 41.54 11.87 45.93 19.2 C 48.75 8.81 55.59 1.99 63.19 1.99 C 70.79 1.99 77.62 8.81 80.44 19.2 C 84.95 13.21 91.38 11.52 97.02 14.84 C 102.66 18.16 106.53 25.92 106.99 34.83 C 111.4 32.42 116.37 34.58 119.19 40.13 C 122.01 45.68 122.01 53.3 119.19 58.86 C 116.37 64.41 111.4 66.56 106.99 64.15 C 106.51 73.57 102.23 81.65 96.14 84.64 C 90.05 87.63 83.34 84.95 79.12 77.83 C 75.76 86.06 69.71 91.1 63.19 91.1 C 56.67 91.1 50.62 86.06 47.26 77.83 C 44.05 87.33 34.92 91.97 26.85 88.19 C 18.79 84.41 14.85 73.65 18.06 64.15 Z" fill="#dae8fc" stroke="#6c8ebf" stroke-width="5" stroke-linejoin="round" stroke-miterlimit="10" pointer-events="all"/><rect x="2" y="2" width="0" height="0" fill="none" stroke="#6c8ebf" stroke-width="5" pointer-events="all"/><ellipse cx="22.04" cy="97.37" rx="7.963720827342107" ry="5.276872964169381" fill="#dae8fc" stroke="#6c8ebf" stroke-width="5" pointer-events="all"/><ellipse cx="12.75" cy="110.08" rx="5.043689857316668" ry="3.517915309446254" fill="#dae8fc" stroke="#6c8ebf" stroke-width="5" pointer-events="all"/><ellipse cx="5.19" cy="119.46" rx="3.1854883309368427" ry="2.54071661237785" fill="#dae8fc" stroke="#6c8ebf" stroke-width="5" pointer-events="all"/></g><g><ellipse cx="62" cy="47" rx="9.999999999999998" ry="9.999999999999998" fill="#f8cecc" stroke="#b85450" stroke-width="5" pointer-events="all"/></g><g><ellipse cx="92" cy="47" rx="9.999999999999998" ry="9.999999999999998" fill="#fff2cc" stroke="#d6b656" stroke-width="5" pointer-events="all"/></g><g><ellipse cx="32" cy="47" rx="9.999999999999998" ry="9.999999999999998" fill="#d5e8d4" stroke="#82b366" stroke-width="5" pointer-events="all"/></g></g></svg>